<svg xmlns="http://www.w3.org/2000/svg" id="OutLine" width="512" height="512"><path d="M349.657 18.343A8 8 0 00344 16H120a56.064 56.064 0 00-56 56v368a56.064 56.064 0 0056 56h272a56.063 56.063 0 0056-56V120a8 8 0 00-2.343-5.657zM352 43.313L420.687 112H392a40.045 40.045 0 01-40-40zM120 32h216v40a56.063 56.063 0 0056 56h40v224H80V72a40.045 40.045 0 0140-40zm272 448H120a40.045 40.045 0 01-40-40v-72h352v72a40.045 40.045 0 01-40 40z"/><path d="M256 400h16a8 8 0 000-16h-16a24 24 0 000 48 8 8 0 010 16h-16a8 8 0 000 16h16a24 24 0 000-48 8 8 0 010-16zm64 0h16a8 8 0 000-16h-16a24 24 0 000 48 8 8 0 010 16h-16a8 8 0 000 16h16a24 24 0 000-48 8 8 0 010-16zm-120 0a10.708 10.708 0 014.59 1.058 8 8 0 006.82-14.474A26.581 26.581 0 00200 384c-17.645 0-32 17.944-32 40s14.355 40 32 40a26.581 26.581 0 0011.41-2.584 8 8 0 10-6.82-14.474A10.708 10.708 0 01200 448c-8.673 0-16-10.991-16-24s7.327-24 16-24z"/><circle cx="256" cy="200" r="8"/><circle cx="256" cy="232" r="8"/><path d="M152 224a8.009 8.009 0 018 8v32a24.027 24.027 0 0024 24 8 8 0 000-16 8.009 8.009 0 01-8-8v-32a23.9 23.9 0 00-6.126-16A23.9 23.9 0 00176 200v-32a8.009 8.009 0 018-8 8 8 0 000-16 24.027 24.027 0 00-24 24v32a8.009 8.009 0 01-8 8 8 8 0 000 16zm184 40a8.009 8.009 0 01-8 8 8 8 0 000 16 24.027 24.027 0 0024-24v-32a8.009 8.009 0 018-8 8 8 0 000-16 8.009 8.009 0 01-8-8v-32a24.027 24.027 0 00-24-24 8 8 0 000 16 8.009 8.009 0 018 8v32a23.9 23.9 0 006.126 16A23.9 23.9 0 00336 232z"/></svg>