<svg version="1.1" id="Capa_1" xmlns="http://www.w3.org/2000/svg" x="0" y="0" viewBox="0 0 512 512" xml:space="preserve"><path d="M469.333 213.333H168.125l94.917-79.094a39.634 39.634 0 0014.292-30.521c0-21.896-17.813-39.719-39.729-39.719h-2.917a39.86 39.86 0 00-25.75 9.458L3.75 247.875C1.375 249.896 0 252.875 0 256s1.375 6.104 3.75 8.125l205.208 174.427A39.81 39.81 0 00234.687 448h2.917c21.917 0 39.729-17.823 39.729-39.719a39.63 39.63 0 00-14.292-30.521l-94.917-79.094h301.208C492.854 298.667 512 279.531 512 256s-19.146-42.667-42.667-42.667z"/></svg>