<svg xmlns="http://www.w3.org/2000/svg" id="OutLine" width="512" height="512"><path d="M349.657 18.343A8 8 0 00344 16H120a56.064 56.064 0 00-56 56v368a56.064 56.064 0 0056 56h272a56.064 56.064 0 0056-56V120a8 8 0 00-2.343-5.657zM352 43.313L420.687 112H392a40.045 40.045 0 01-40-40zM120 32h216v40a56.064 56.064 0 0056 56h40v224H80V72a40.045 40.045 0 0140-40zm272 448H120a40.045 40.045 0 01-40-40v-72h352v72a40.045 40.045 0 01-40 40z"/><path d="M256 400h16a8 8 0 000-16h-16a24 24 0 000 48 8 8 0 010 16h-16a8 8 0 000 16h16a24 24 0 000-48 8 8 0 010-16zm-64-16h-16a8 8 0 00-8 8v64a8 8 0 0016 0v-24h8a24 24 0 000-48zm0 32h-8v-16h8a8 8 0 010 16zm112-32a8 8 0 00-8 8v64a8 8 0 008 8 40 40 0 000-80zm8 62.629v-45.258a24 24 0 010 45.258zm62.656-267.067l-32-48A8 8 0 00336 128H176a8 8 0 00-6.656 3.562l-32 48a8 8 0 001 10.095l112 112a8 8 0 0011.314 0l112-112a8 8 0 00.998-10.095zM353.052 176h-44.108l-16-32h38.775zm-150.327 16l29.558 68.97L163.314 192zm89.142 0L256 275.691 220.133 192zm-70.923-16l16-32h38.112l16 32zm88.331 16h39.411l-68.969 68.97zm-128.994-48h38.775l-16 32h-44.108z"/></svg>