<svg xmlns="http://www.w3.org/2000/svg" id="Outline" width="512" height="512"><path d="M468.43 116.47c-20.951-27.931-67.711-35.652-128.887-21.514a256.392 256.392 0 00-4.064-9.243 31.984 31.984 0 00-35.7-51.282C286.06 22.21 271.358 16 256 16c-17.639 0-34.385 8.137-49.772 24.185-12.89 13.442-24.228 31.855-33.773 54.77C111.279 80.819 64.52 88.54 43.571 116.469 19.742 148.233 33.374 200.092 79.938 256q-3.81 4.575-7.377 9.17a31.977 31.977 0 00-31.646 52.954c-12.76 31.346-11.878 58.02 2.655 77.4 14.094 18.789 39.858 28.436 73.84 28.435 16.534 0 35.021-2.293 55.045-6.921 9.543 22.915 20.883 41.329 33.773 54.771C221.615 487.863 238.361 496 256 496s34.385-8.137 49.772-24.185c12.888-13.441 24.227-31.851 33.77-54.763q6.419 1.483 12.679 2.652a32 32 0 0063.075 2.965c23.9-3.246 42.2-12.549 53.133-27.138 23.828-31.763 10.2-83.622-36.365-139.531 46.563-55.91 60.193-107.768 36.366-139.53zm-12.8 9.6c18.536 24.709 5.376 69.34-34.231 117.694a464.789 464.789 0 00-57.492-52.894c-3.758-29.113-10.125-56.789-18.577-80.817 52.908-11.8 93.795-5.987 110.3 16.018zm-125.9 271.985a412.988 412.988 0 01-55.118-19.685 567.178 567.178 0 0050.432-29.415q10.537-6.891 20.688-14.19a368.316 368.316 0 01-15.998 63.291zm-147.468 0a368.421 368.421 0 01-16-63.291q10.128 7.275 20.689 14.19a566.986 566.986 0 0050.432 29.416 413.069 413.069 0 01-55.117 19.686zm0-284.112a412.988 412.988 0 0155.118 19.685 567.178 567.178 0 00-50.432 29.415q-10.538 6.891-20.688 14.19a368.316 368.316 0 0116.006-63.289zm13.442 221.62a550.295 550.295 0 01-32.532-22.988 505.5 505.5 0 010-113.152 550.637 550.637 0 0132.532-22.989A544.9 544.9 0 01256 142.216a544.7 544.7 0 0160.292 34.22 550.295 550.295 0 0132.532 22.988A501.517 501.517 0 01352 256a501.451 501.451 0 01-3.176 56.576 550.637 550.637 0 01-32.532 22.989A544.9 544.9 0 01256 369.784a544.7 544.7 0 01-60.292-34.22zm-49.965-36.889A431.841 431.841 0 01101.111 256a432.351 432.351 0 0144.633-42.68C144.594 227.363 144 241.648 144 256s.594 28.632 1.743 42.675zm183.995-184.73a368.421 368.421 0 0116 63.291q-10.128-7.275-20.689-14.19a566.986 566.986 0 00-50.432-29.416 413.069 413.069 0 0155.121-19.685zm36.523 99.381A431.841 431.841 0 01410.889 256a432.351 432.351 0 01-44.633 42.68C367.406 284.637 368 270.352 368 256s-.594-28.632-1.743-42.675zM328 64a16 16 0 11-16-16 16.019 16.019 0 0116 16zm-72-32c10.468 0 20.791 4.158 30.772 12.349a31.98 31.98 0 0035.094 50.087q1.014 2.239 2 4.53A444.147 444.147 0 00256 124.483a444.153 444.153 0 00-67.877-25.522C206.362 56.276 230.834 32 256 32zM56.37 126.07c16.505-22 57.39-27.818 110.3-16.016-8.45 24.024-14.817 51.694-18.575 80.807a465.419 465.419 0 00-57.494 52.9C50.994 195.412 37.833 150.78 56.37 126.07zM64 280a16 16 0 11-16 16 16.019 16.019 0 0116-16zm-7.629 105.931c-12.957-17.282-8.8-40.6-1.618-59.3A31.985 31.985 0 0086.53 273.3q1.99-2.535 4.069-5.068a464.756 464.756 0 0057.494 52.9c3.758 29.113 10.125 56.789 18.577 80.817-52.907 11.799-93.794 5.985-110.299-16.018zM256 480c-25.166 0-49.638-24.276-67.877-66.962A444.014 444.014 0 00256 387.517a444.27 444.27 0 0067.877 25.522C305.638 455.724 281.166 480 256 480zm128-48a16 16 0 1116-16 16.019 16.019 0 01-16 16zm71.627-46.067c-8.1 10.81-22.207 17.886-41.033 20.686a32 32 0 00-60.183-2.79q-4.485-.852-9.08-1.885c8.45-24.023 14.816-51.693 18.574-80.805a465.329 465.329 0 0057.494-52.9c39.607 48.349 52.767 92.981 34.228 117.694z"/><path d="M256 192a64 64 0 1064 64 64.072 64.072 0 00-64-64zm0 112a48 48 0 1148-48 48.055 48.055 0 01-48 48z"/></svg>