<svg version="1.1" id="Capa_1" xmlns="http://www.w3.org/2000/svg" x="0" y="0" viewBox="0 0 512 512" xml:space="preserve"><path d="M508.25 247.875L303.042 73.448A39.81 39.81 0 00277.313 64h-2.917c-21.917 0-39.729 17.823-39.729 39.719a39.63 39.63 0 0014.292 30.521l94.917 79.094H42.667C19.146 213.333 0 232.469 0 256s19.146 42.667 42.667 42.667h301.208l-94.917 79.094a39.634 39.634 0 00-14.292 30.521c0 21.896 17.813 39.719 39.729 39.719h2.917a39.86 39.86 0 0025.75-9.458L508.25 264.125c2.375-2.021 3.75-5 3.75-8.125s-1.375-6.104-3.75-8.125z"/></svg>