<?xml version="1.0"?>
<svg xmlns="http://www.w3.org/2000/svg" id="Outline" viewBox="0 0 512 512" width="512" height="512"><path d="M408,120a8,8,0,0,0-2.343-5.657l-96-96A8,8,0,0,0,304,16H64A40.045,40.045,0,0,0,24,56V456a40.045,40.045,0,0,0,40,40H400a8,8,0,0,0,8-8V465.986q1.679-.658,3.341-1.39l15.57,15.57a8,8,0,0,0,11.315,0l33.941-33.941a8,8,0,0,0,0-11.315l-15.57-15.57q.731-1.661,1.39-3.341H480a8,8,0,0,0,8-8V360a8,8,0,0,0-8-8H457.986q-.658-1.679-1.39-3.341l15.57-15.57a8,8,0,0,0,0-11.315l-33.941-33.941a8,8,0,0,0-11.315,0l-15.57,15.57q-1.661-.731-3.341-1.39V120ZM312,43.313,380.687,112H336a24.028,24.028,0,0,1-24-24ZM64,480a24.028,24.028,0,0,1-24-24V56A24.028,24.028,0,0,1,64,32H296V88a40.045,40.045,0,0,0,40,40h56V272H352a8,8,0,0,0-8,8v22.014q-1.679.658-3.341,1.39l-15.57-15.57a8,8,0,0,0-11.315,0l-33.941,33.941a8,8,0,0,0,0,11.315l15.57,15.57q-.731,1.661-1.39,3.341H272a8,8,0,0,0-8,8v48a8,8,0,0,0,8,8h22.014q.658,1.679,1.39,3.341l-15.57,15.57a8,8,0,0,0,0,11.315L313.607,480Zm280,0H325.255l15.4-15.4q1.661.731,3.341,1.39Zm65.284-159.84a8,8,0,0,0,9.362-1.433L432.568,304.8,455.2,327.432l-13.923,13.922a8,8,0,0,0-1.433,9.362A71.672,71.672,0,0,1,444.7,362.4a8,8,0,0,0,7.633,5.6H472v32H452.332a8,8,0,0,0-7.633,5.6,71.672,71.672,0,0,1-4.859,11.68,8,8,0,0,0,1.433,9.362L455.2,440.568,432.568,463.2l-13.922-13.923a8,8,0,0,0-9.362-1.433A71.672,71.672,0,0,1,397.6,452.7a8,8,0,0,0-5.6,7.633V480H360V460.332a8,8,0,0,0-5.6-7.633,71.672,71.672,0,0,1-11.68-4.859,8,8,0,0,0-9.362,1.433L319.432,463.2,296.8,440.568l13.923-13.922a8,8,0,0,0,1.433-9.362A71.672,71.672,0,0,1,307.3,405.6a8,8,0,0,0-7.633-5.6H280V368h19.668a8,8,0,0,0,7.633-5.6,71.672,71.672,0,0,1,4.859-11.68,8,8,0,0,0-1.433-9.362L296.8,327.432,319.432,304.8l13.922,13.923a8,8,0,0,0,9.362,1.433A71.672,71.672,0,0,1,354.4,315.3a8,8,0,0,0,5.6-7.633V288h32v19.668a8,8,0,0,0,5.6,7.633A71.672,71.672,0,0,1,409.284,320.16Z"/><path d="M152,168a8,8,0,0,0,8,8H352a8,8,0,0,0,0-16H160A8,8,0,0,0,152,168Z"/><path d="M80,224H240a8,8,0,0,0,0-16H80a8,8,0,0,0,0,16Z"/><path d="M288,256H208a8,8,0,0,0,0,16h80a8,8,0,0,0,0-16Z"/><path d="M248,304H232a8,8,0,0,0,0,16h16a8,8,0,0,0,0-16Z"/><path d="M80,320H200a8,8,0,0,0,0-16H80a8,8,0,0,0,0,16Z"/><path d="M80,176h48a8,8,0,0,0,0-16H80a8,8,0,0,0,0,16Z"/><path d="M352,208H272a8,8,0,0,0,0,16h80a8,8,0,0,0,0-16Z"/><path d="M80,272h96a8,8,0,0,0,0-16H80a8,8,0,0,0,0,16Z"/><path d="M224,400H192a8,8,0,0,0,0,16h32a8,8,0,0,0,0-16Z"/><path d="M160,400H80a8,8,0,0,0,0,16h80a8,8,0,0,0,0-16Z"/><path d="M80,368h48a8,8,0,0,0,0-16H80a8,8,0,0,0,0,16Z"/><path d="M80,128h96a8,8,0,0,0,0-16H80a8,8,0,0,0,0,16Z"/><path d="M224,352H160a8,8,0,0,0,0,16h64a8,8,0,0,0,0-16Z"/><path d="M344,384a32,32,0,1,0,32-32A32.036,32.036,0,0,0,344,384Zm48,0a16,16,0,1,1-16-16A16.019,16.019,0,0,1,392,384Z"/></svg>
