<svg xmlns="http://www.w3.org/2000/svg" id="Outline" width="512" height="512"><path d="M408 120a8 8 0 00-2.343-5.657l-96-96A8 8 0 00304 16H64a40.045 40.045 0 00-40 40v400a40.045 40.045 0 0040 40h336a8 8 0 008-8v-22.014q1.679-.658 3.341-1.39l15.57 15.57a8 8 0 0011.315 0l33.941-33.941a8 8 0 000-11.315l-15.57-15.57q.731-1.661 1.39-3.341H480a8 8 0 008-8V360a8 8 0 00-8-8h-22.014q-.658-1.679-1.39-3.341l15.57-15.57a8 8 0 000-11.315l-33.941-33.941a8 8 0 00-11.315 0l-15.57 15.57q-1.661-.731-3.341-1.39V120zm-96-76.687L380.687 112H336a24.028 24.028 0 01-24-24zM64 480a24.028 24.028 0 01-24-24V56a24.028 24.028 0 0124-24h232v56a40.045 40.045 0 0040 40h56v144h-40a8 8 0 00-8 8v22.014q-1.679.658-3.341 1.39l-15.57-15.57a8 8 0 00-11.315 0l-33.941 33.941a8 8 0 000 11.315l15.57 15.57q-.731 1.661-1.39 3.341H272a8 8 0 00-8 8v48a8 8 0 008 8h22.014q.658 1.679 1.39 3.341l-15.57 15.57a8 8 0 000 11.315L313.607 480zm280 0h-18.745l15.4-15.4q1.661.731 3.341 1.39zm65.284-159.84a8 8 0 009.362-1.433l13.922-13.927 22.632 22.632-13.923 13.922a8 8 0 00-1.433 9.362A71.672 71.672 0 01444.7 362.4a8 8 0 007.633 5.6H472v32h-19.668a8 8 0 00-7.633 5.6 71.672 71.672 0 01-4.859 11.68 8 8 0 001.433 9.362l13.927 13.926-22.632 22.632-13.922-13.923a8 8 0 00-9.362-1.433A71.672 71.672 0 01397.6 452.7a8 8 0 00-5.6 7.633V480h-32v-19.668a8 8 0 00-5.6-7.633 71.672 71.672 0 01-11.68-4.859 8 8 0 00-9.362 1.433L319.432 463.2 296.8 440.568l13.923-13.922a8 8 0 001.433-9.362A71.672 71.672 0 01307.3 405.6a8 8 0 00-7.633-5.6H280v-32h19.668a8 8 0 007.633-5.6 71.672 71.672 0 014.859-11.68 8 8 0 00-1.433-9.362L296.8 327.432l22.632-22.632 13.922 13.923a8 8 0 009.362 1.433A71.672 71.672 0 01354.4 315.3a8 8 0 005.6-7.633V288h32v19.668a8 8 0 005.6 7.633 71.672 71.672 0 0111.684 4.859z"/><path d="M152 168a8 8 0 008 8h192a8 8 0 000-16H160a8 8 0 00-8 8zm-72 56h160a8 8 0 000-16H80a8 8 0 000 16zm208 32h-80a8 8 0 000 16h80a8 8 0 000-16zm-40 48h-16a8 8 0 000 16h16a8 8 0 000-16zM80 320h120a8 8 0 000-16H80a8 8 0 000 16zm0-144h48a8 8 0 000-16H80a8 8 0 000 16zm272 32h-80a8 8 0 000 16h80a8 8 0 000-16zM80 272h96a8 8 0 000-16H80a8 8 0 000 16zm144 128h-32a8 8 0 000 16h32a8 8 0 000-16zm-64 0H80a8 8 0 000 16h80a8 8 0 000-16zm-80-32h48a8 8 0 000-16H80a8 8 0 000 16zm0-240h96a8 8 0 000-16H80a8 8 0 000 16zm144 224h-64a8 8 0 000 16h64a8 8 0 000-16zm120 32a32 32 0 1032-32 32.036 32.036 0 00-32 32zm48 0a16 16 0 11-16-16 16.019 16.019 0 0116 16z"/></svg>