<?xml version="1.0" encoding="iso-8859-1"?><svg viewBox="0 0 512 512" xmlns="http://www.w3.org/2000/svg" xmlns:xlink="http://www.w3.org/1999/xlink"><style>:root>svg{display:none}:root>svg:target{display:block}</style><svg viewBox="0 0 512 512" id="arroba" xmlns="http://www.w3.org/2000/svg"><path d="M256 224c-19.744 0-32 15.328-32 40s12.256 40 32 40 32-15.328 32-40-12.256-40-32-40z"/><path d="M256 0C114.624 0 0 114.624 0 256s114.624 256 256 256 256-114.624 256-256S397.376 0 256 0zm160 272c0 35.296-28.704 64-64 64-19.328 0-36.48-8.8-48.224-22.4C292.416 327.616 275.872 336 256 336c-37.696 0-64-29.6-64-72s26.304-72 64-72c12.64 0 23.84 3.584 33.376 9.6 2.464-5.632 8.064-9.6 14.624-9.6 8.832 0 16 7.168 16 16v64c0 17.664 14.336 32 32 32s32-14.336 32-32v-9.312c0-68-47.648-125.408-110.88-133.568-42.016-5.376-82.432 9.088-110.976 39.808-28.512 30.752-39.968 72.448-31.328 114.4 9.76 47.424 47.936 86.528 94.944 97.216 30.144 6.848 60.224 3.456 86.944-9.824 7.968-3.872 17.504-.704 21.472 7.232 3.904 7.936.672 17.536-7.232 21.472-22.208 11.008-46.208 16.608-70.816 16.608-12.384 0-24.928-1.408-37.472-4.288-59.968-13.632-106.752-61.504-119.2-121.984-10.72-52.192 3.584-104.16 39.232-142.592 35.712-38.432 86.176-56.448 138.528-49.824C356.352 107.584 416 178.656 416 262.688V272z"/></svg><svg viewBox="0 0 512 512" id="css" xmlns="http://www.w3.org/2000/svg"><path d="M349.657 18.343A8 8 0 00344 16H120a56.064 56.064 0 00-56 56v368a56.064 56.064 0 0056 56h272a56.063 56.063 0 0056-56V120a8 8 0 00-2.343-5.657zM352 43.313L420.687 112H392a40.045 40.045 0 01-40-40zM120 32h216v40a56.063 56.063 0 0056 56h40v224H80V72a40.045 40.045 0 0140-40zm272 448H120a40.045 40.045 0 01-40-40v-72h352v72a40.045 40.045 0 01-40 40z"/><path d="M256 400h16a8 8 0 000-16h-16a24 24 0 000 48 8 8 0 010 16h-16a8 8 0 000 16h16a24 24 0 000-48 8 8 0 010-16zM320 400h16a8 8 0 000-16h-16a24 24 0 000 48 8 8 0 010 16h-16a8 8 0 000 16h16a24 24 0 000-48 8 8 0 010-16zM200 400a10.708 10.708 0 014.59 1.058 8 8 0 006.82-14.474A26.581 26.581 0 00200 384c-17.645 0-32 17.944-32 40s14.355 40 32 40a26.581 26.581 0 0011.41-2.584 8 8 0 10-6.82-14.474A10.708 10.708 0 01200 448c-8.673 0-16-10.991-16-24s7.327-24 16-24z"/><circle cx="256" cy="200" r="8"/><circle cx="256" cy="232" r="8"/><path d="M152 224a8.009 8.009 0 018 8v32a24.027 24.027 0 0024 24 8 8 0 000-16 8.009 8.009 0 01-8-8v-32a23.9 23.9 0 00-6.126-16A23.9 23.9 0 00176 200v-32a8.009 8.009 0 018-8 8 8 0 000-16 24.027 24.027 0 00-24 24v32a8.009 8.009 0 01-8 8 8 8 0 000 16zM336 264a8.009 8.009 0 01-8 8 8 8 0 000 16 24.027 24.027 0 0024-24v-32a8.009 8.009 0 018-8 8 8 0 000-16 8.009 8.009 0 01-8-8v-32a24.027 24.027 0 00-24-24 8 8 0 000 16 8.009 8.009 0 018 8v32a23.9 23.9 0 006.126 16A23.9 23.9 0 00336 232z"/></svg><svg viewBox="0 0 299.997 299.997" id="email-open" xmlns="http://www.w3.org/2000/svg"><path d="M149.996 0C67.157 0 .001 67.158.001 149.997c0 82.837 67.156 150 149.995 150s150-67.163 150-150C299.996 67.158 232.835 0 149.996 0zm.003 52.686l88.763 55.35H61.236l88.763-55.35zm89.869 143.737h-.009c0 8.878-7.195 16.072-16.072 16.072H76.211c-8.878 0-16.072-7.195-16.072-16.072v-84.865c0-.939.096-1.852.252-2.749l84.808 52.883c.104.065.215.109.322.169.112.062.226.122.34.179a8.903 8.903 0 001.847.721c.065.018.13.026.195.041a9.148 9.148 0 002.093.265h.015c.7 0 1.401-.099 2.093-.265.065-.016.13-.023.195-.041a8.99 8.99 0 001.847-.721 9.19 9.19 0 00.34-.179c.106-.06.218-.104.322-.169l84.808-52.883c.156.897.252 1.808.252 2.749v84.865z"/></svg><svg viewBox="0 0 96 96" id="github" xmlns="http://www.w3.org/2000/svg"><path d="M48.07 47.746l-.07-.002a1.782 1.782 0 01-.071.002c-5.957 0-11.206-1.508-14.308 1.34-1.859 1.709-2.642 3.768-2.642 5.985 0 9.261 7.42 10.398 16.949 10.398h.142c9.529 0 16.949-1.138 16.949-10.398 0-2.218-.783-4.276-2.642-5.985-3.102-2.848-8.35-1.34-14.307-1.34zm-8.102 12.655c-1.813 0-3.283-2.036-3.283-4.547s1.47-4.546 3.283-4.546 3.285 2.035 3.285 4.546-1.472 4.547-3.285 4.547zm16.063 0c-1.814 0-3.285-2.036-3.285-4.547s1.471-4.546 3.285-4.546c1.812 0 3.283 2.035 3.283 4.546s-1.47 4.547-3.283 4.547zM48 0C21.489 0 0 21.49 0 48s21.489 48 48 48c26.509 0 48-21.49 48-48S74.509 0 48 0zm4.378 67.701L48 67.705l-4.379-.004c-3.803 0-18.863-.291-18.863-18.445 0-4.177 1.432-7.233 3.775-9.778-.374-.923-.393-6.165 1.602-11.183 0 0 4.576.502 11.5 5.253 1.451-.401 3.908-.601 6.365-.601 2.455 0 4.912.199 6.365.601 6.923-4.751 11.498-5.253 11.498-5.253 1.995 5.018 1.977 10.26 1.603 11.183 2.344 2.545 3.776 5.602 3.776 9.778 0 18.154-15.061 18.445-18.864 18.445z"/></svg><svg viewBox="0 0 512 512" id="html" xmlns="http://www.w3.org/2000/svg"><path d="M349.657 18.343A8 8 0 00344 16H120a56.064 56.064 0 00-56 56v368a56.064 56.064 0 0056 56h272a56.064 56.064 0 0056-56V120a8 8 0 00-2.343-5.657zM352 43.313L420.687 112H392a40.045 40.045 0 01-40-40zM120 32h216v40a56.064 56.064 0 0056 56h40v224H80V72a40.045 40.045 0 0140-40zm272 448H120a40.045 40.045 0 01-40-40v-72h352v72a40.045 40.045 0 01-40 40z"/><path d="M168 384a8 8 0 00-8 8v24h-16v-24a8 8 0 00-16 0v64a8 8 0 0016 0v-24h16v24a8 8 0 0016 0v-64a8 8 0 00-8-8zM232 384h-32a8 8 0 000 16h8v56a8 8 0 0016 0v-56h8a8 8 0 000-16zM313.838 384.214a8 8 0 00-8.993 4.208L288 422.111l-16.845-33.689A8 8 0 00256 392v64a8 8 0 0016 0v-30.111l8.845 17.689a8 8 0 0014.31 0L304 425.889V456a8 8 0 0016 0v-64a8 8 0 00-6.162-7.786zM376 448h-24v-56a8 8 0 00-16 0v64a8 8 0 008 8h32a8 8 0 000-16zM194.343 261.657a8 8 0 1011.314-11.314L163.313 208l42.344-42.343a8 8 0 00-11.314-11.314l-48 48a8 8 0 000 11.314zM306.343 261.657a8 8 0 0011.314 0l48-48a8 8 0 000-11.314l-48-48a8 8 0 00-11.314 11.314L348.687 208l-42.344 42.343a8 8 0 000 11.314zM229.47 287.589a7.991 7.991 0 0010.119-5.059l48-144a8 8 0 10-15.178-5.06l-48 144a8 8 0 005.059 10.119z"/></svg><svg viewBox="0 0 512 512" id="js" xmlns="http://www.w3.org/2000/svg"><path d="M349.657 18.343A8 8 0 00344 16H120a56.063 56.063 0 00-56 56v368a56.063 56.063 0 0056 56h272a56.063 56.063 0 0056-56V120a8 8 0 00-2.343-5.657zM352 43.313L420.687 112H392a40.045 40.045 0 01-40-40zM120 32h216v40a56.063 56.063 0 0056 56h40v224H80V72a40.045 40.045 0 0140-40zm272 448H120a40.045 40.045 0 01-40-40v-72h352v72a40.045 40.045 0 01-40 40z"/><path d="M240 384a8 8 0 00-8 8v48a8 8 0 01-16 0 8 8 0 00-16 0 24 24 0 0048 0v-48a8 8 0 00-8-8zM288 400h16a8 8 0 000-16h-16a24 24 0 000 48 8 8 0 010 16h-16a8 8 0 000 16h16a24 24 0 000-48 8 8 0 010-16z"/><circle cx="288" cy="216" r="8"/><circle cx="224" cy="216" r="8"/><circle cx="256" cy="216" r="8"/><path d="M152 224a8.009 8.009 0 018 8v32a24.028 24.028 0 0024 24 8 8 0 000-16 8.009 8.009 0 01-8-8v-32a23.9 23.9 0 00-6.126-16A23.9 23.9 0 00176 200v-32a8.009 8.009 0 018-8 8 8 0 000-16 24.028 24.028 0 00-24 24v32a8.009 8.009 0 01-8 8 8 8 0 000 16zM336 264a8.009 8.009 0 01-8 8 8 8 0 000 16 24.028 24.028 0 0024-24v-32a8.009 8.009 0 018-8 8 8 0 000-16 8.009 8.009 0 01-8-8v-32a24.028 24.028 0 00-24-24 8 8 0 000 16 8.009 8.009 0 018 8v32a23.9 23.9 0 006.126 16A23.9 23.9 0 00336 232z"/></svg><svg viewBox="0 0 512 512" id="left" xmlns="http://www.w3.org/2000/svg"><path d="M469.333 213.333H168.125l94.917-79.094a39.634 39.634 0 0014.292-30.521c0-21.896-17.813-39.719-39.729-39.719h-2.917a39.86 39.86 0 00-25.75 9.458L3.75 247.875C1.375 249.896 0 252.875 0 256s1.375 6.104 3.75 8.125l205.208 174.427A39.81 39.81 0 00234.687 448h2.917c21.917 0 39.729-17.823 39.729-39.719a39.63 39.63 0 00-14.292-30.521l-94.917-79.094h301.208C492.854 298.667 512 279.531 512 256s-19.146-42.667-42.667-42.667z"/></svg><svg viewBox="0 0 44 44" id="link" xmlns="http://www.w3.org/2000/svg"><path d="M22 0C9.8 0 0 9.8 0 22s9.8 22 22 22 22-9.8 22-22S34.2 0 22 0zm-5.2 24.4l-1.4 1.4c-.4.4-1 .4-1.4 0l-2.5-2.5c-1.6-1.6-2.5-3.7-2.5-6 0-4.6 3.8-8.4 8.4-8.4 2.2 0 4.4.9 6 2.5l2.5 2.5c.4.4.4 1 0 1.4l-1.4 1.4c-.4.4-1 .4-1.4 0l-2.5-2.5c-.8-.8-1.9-1.3-3.1-1.3-2.4 0-4.4 2-4.4 4.4 0 1.2.5 2.3 1.3 3.1l2.5 2.5c.2.5.2 1.1-.1 1.5zm.5-5.7l1.4-1.4c.4-.4 1-.4 1.4 0l6.6 6.6c.4.4.4 1 0 1.4l-1.4 1.4c-.4.4-1 .4-1.4 0l-6.6-6.6c-.4-.4-.4-1 0-1.4zM26.6 35c-2.2 0-4.4-.9-6-2.5L18.1 30c-.4-.4-.4-1 0-1.4l1.4-1.4c.4-.4 1-.4 1.4 0l2.5 2.5c.8.8 1.9 1.3 3.1 1.3 2.4 0 4.4-2 4.4-4.4 0-1.2-.5-2.3-1.3-3.1L27.1 21c-.4-.4-.4-1 0-1.4l1.4-1.4c.4-.4 1-.4 1.4 0l2.5 2.5c1.6 1.6 2.5 3.7 2.5 6 .1 4.5-3.7 8.3-8.3 8.3z"/></svg><svg viewBox="0 0 512 512" id="phone-call" xmlns="http://www.w3.org/2000/svg"><path d="M436.992 74.953c-99.989-99.959-262.08-99.935-362.039.055s-99.935 262.08.055 362.039 262.08 99.935 362.039-.055a256 256 0 00-.055-362.039zm-49.289 281.652l-.034.034v-.085l-12.971 12.885a68.267 68.267 0 01-64.427 18.432 226.834 226.834 0 01-65.877-29.525 304.371 304.371 0 01-51.968-41.899 306.71 306.71 0 01-38.827-47.104 238.907 238.907 0 01-29.184-59.051 68.265 68.265 0 0117.067-69.717l15.189-15.189c4.223-4.242 11.085-4.257 15.326-.034l.034.034 47.957 47.957c4.242 4.223 4.257 11.085.034 15.326l-.034.034-28.16 28.16c-8.08 7.992-9.096 20.692-2.389 29.867a329.334 329.334 0 0033.707 39.339 327.314 327.314 0 0044.373 37.291c9.167 6.394 21.595 5.316 29.525-2.56l27.221-27.648c4.223-4.242 11.085-4.257 15.326-.034l.034.034 48.043 48.128c4.243 4.222 4.258 11.083.035 15.325z"/></svg><svg viewBox="0 0 512 512" id="psd" xmlns="http://www.w3.org/2000/svg"><path d="M349.657 18.343A8 8 0 00344 16H120a56.064 56.064 0 00-56 56v368a56.064 56.064 0 0056 56h272a56.064 56.064 0 0056-56V120a8 8 0 00-2.343-5.657zM352 43.313L420.687 112H392a40.045 40.045 0 01-40-40zM120 32h216v40a56.064 56.064 0 0056 56h40v224H80V72a40.045 40.045 0 0140-40zm272 448H120a40.045 40.045 0 01-40-40v-72h352v72a40.045 40.045 0 01-40 40z"/><path d="M256 400h16a8 8 0 000-16h-16a24 24 0 000 48 8 8 0 010 16h-16a8 8 0 000 16h16a24 24 0 000-48 8 8 0 010-16zM192 384h-16a8 8 0 00-8 8v64a8 8 0 0016 0v-24h8a24 24 0 000-48zm0 32h-8v-16h8a8 8 0 010 16zM304 384a8 8 0 00-8 8v64a8 8 0 008 8 40 40 0 000-80zm8 62.629v-45.258a24 24 0 010 45.258zM374.656 179.562l-32-48A8 8 0 00336 128H176a8 8 0 00-6.656 3.562l-32 48a8 8 0 001 10.095l112 112a8 8 0 0011.314 0l112-112a8 8 0 00.998-10.095zM353.052 176h-44.108l-16-32h38.775zm-150.327 16l29.558 68.97L163.314 192zm89.142 0L256 275.691 220.133 192zm-70.923-16l16-32h38.112l16 32zm88.331 16h39.411l-68.969 68.97zm-128.994-48h38.775l-16 32h-44.108z"/></svg><svg viewBox="0 0 512 512" id="react" xmlns="http://www.w3.org/2000/svg"><path d="M468.43 116.47c-20.951-27.931-67.711-35.652-128.887-21.514a256.392 256.392 0 00-4.064-9.243 31.984 31.984 0 00-35.7-51.282C286.06 22.21 271.358 16 256 16c-17.639 0-34.385 8.137-49.772 24.185-12.89 13.442-24.228 31.855-33.773 54.77C111.279 80.819 64.52 88.54 43.571 116.469 19.742 148.233 33.374 200.092 79.938 256q-3.81 4.575-7.377 9.17a31.977 31.977 0 00-31.646 52.954c-12.76 31.346-11.878 58.02 2.655 77.4 14.094 18.789 39.858 28.436 73.84 28.435 16.534 0 35.021-2.293 55.045-6.921 9.543 22.915 20.883 41.329 33.773 54.771C221.615 487.863 238.361 496 256 496s34.385-8.137 49.772-24.185c12.888-13.441 24.227-31.851 33.77-54.763q6.419 1.483 12.679 2.652a32 32 0 0063.075 2.965c23.9-3.246 42.2-12.549 53.133-27.138 23.828-31.763 10.2-83.622-36.365-139.531 46.563-55.91 60.193-107.768 36.366-139.53zm-12.8 9.6c18.536 24.709 5.376 69.34-34.231 117.694a464.789 464.789 0 00-57.492-52.894c-3.758-29.113-10.125-56.789-18.577-80.817 52.908-11.8 93.795-5.987 110.3 16.018zm-125.9 271.985a412.988 412.988 0 01-55.118-19.685 567.178 567.178 0 0050.432-29.415q10.537-6.891 20.688-14.19a368.316 368.316 0 01-15.998 63.291zm-147.468 0a368.421 368.421 0 01-16-63.291q10.128 7.275 20.689 14.19a566.986 566.986 0 0050.432 29.416 413.069 413.069 0 01-55.117 19.686zm0-284.112a412.988 412.988 0 0155.118 19.685 567.178 567.178 0 00-50.432 29.415q-10.538 6.891-20.688 14.19a368.316 368.316 0 0116.006-63.289zm13.442 221.62a550.295 550.295 0 01-32.532-22.988 505.5 505.5 0 010-113.152 550.637 550.637 0 0132.532-22.989A544.9 544.9 0 01256 142.216a544.7 544.7 0 0160.292 34.22 550.295 550.295 0 0132.532 22.988A501.517 501.517 0 01352 256a501.451 501.451 0 01-3.176 56.576 550.637 550.637 0 01-32.532 22.989A544.9 544.9 0 01256 369.784a544.7 544.7 0 01-60.292-34.22zm-49.965-36.889A431.841 431.841 0 01101.111 256a432.351 432.351 0 0144.633-42.68C144.594 227.363 144 241.648 144 256s.594 28.632 1.743 42.675zm183.995-184.73a368.421 368.421 0 0116 63.291q-10.128-7.275-20.689-14.19a566.986 566.986 0 00-50.432-29.416 413.069 413.069 0 0155.121-19.685zm36.523 99.381A431.841 431.841 0 01410.889 256a432.351 432.351 0 01-44.633 42.68C367.406 284.637 368 270.352 368 256s-.594-28.632-1.743-42.675zM328 64a16 16 0 11-16-16 16.019 16.019 0 0116 16zm-72-32c10.468 0 20.791 4.158 30.772 12.349a31.98 31.98 0 0035.094 50.087q1.014 2.239 2 4.53A444.147 444.147 0 00256 124.483a444.153 444.153 0 00-67.877-25.522C206.362 56.276 230.834 32 256 32zM56.37 126.07c16.505-22 57.39-27.818 110.3-16.016-8.45 24.024-14.817 51.694-18.575 80.807a465.419 465.419 0 00-57.494 52.9C50.994 195.412 37.833 150.78 56.37 126.07zM64 280a16 16 0 11-16 16 16.019 16.019 0 0116-16zm-7.629 105.931c-12.957-17.282-8.8-40.6-1.618-59.3A31.985 31.985 0 0086.53 273.3q1.99-2.535 4.069-5.068a464.756 464.756 0 0057.494 52.9c3.758 29.113 10.125 56.789 18.577 80.817-52.907 11.799-93.794 5.985-110.299-16.018zM256 480c-25.166 0-49.638-24.276-67.877-66.962A444.014 444.014 0 00256 387.517a444.27 444.27 0 0067.877 25.522C305.638 455.724 281.166 480 256 480zm128-48a16 16 0 1116-16 16.019 16.019 0 01-16 16zm71.627-46.067c-8.1 10.81-22.207 17.886-41.033 20.686a32 32 0 00-60.183-2.79q-4.485-.852-9.08-1.885c8.45-24.023 14.816-51.693 18.574-80.805a465.329 465.329 0 0057.494-52.9c39.607 48.349 52.767 92.981 34.228 117.694z"/><path d="M256 192a64 64 0 1064 64 64.072 64.072 0 00-64-64zm0 112a48 48 0 1148-48 48.055 48.055 0 01-48 48z"/></svg><svg viewBox="0 0 512 512" id="right" xmlns="http://www.w3.org/2000/svg"><path d="M508.25 247.875L303.042 73.448A39.81 39.81 0 00277.313 64h-2.917c-21.917 0-39.729 17.823-39.729 39.719a39.63 39.63 0 0014.292 30.521l94.917 79.094H42.667C19.146 213.333 0 232.469 0 256s19.146 42.667 42.667 42.667h301.208l-94.917 79.094a39.634 39.634 0 00-14.292 30.521c0 21.896 17.813 39.719 39.729 39.719h2.917a39.86 39.86 0 0025.75-9.458L508.25 264.125c2.375-2.021 3.75-5 3.75-8.125s-1.375-6.104-3.75-8.125z"/></svg><svg viewBox="0 0 512 512" id="tools" xmlns="http://www.w3.org/2000/svg"><path d="M408 120a8 8 0 00-2.343-5.657l-96-96A8 8 0 00304 16H64a40.045 40.045 0 00-40 40v400a40.045 40.045 0 0040 40h336a8 8 0 008-8v-22.014q1.679-.658 3.341-1.39l15.57 15.57a8 8 0 0011.315 0l33.941-33.941a8 8 0 000-11.315l-15.57-15.57q.731-1.661 1.39-3.341H480a8 8 0 008-8V360a8 8 0 00-8-8h-22.014q-.658-1.679-1.39-3.341l15.57-15.57a8 8 0 000-11.315l-33.941-33.941a8 8 0 00-11.315 0l-15.57 15.57q-1.661-.731-3.341-1.39V120zm-96-76.687L380.687 112H336a24.028 24.028 0 01-24-24zM64 480a24.028 24.028 0 01-24-24V56a24.028 24.028 0 0124-24h232v56a40.045 40.045 0 0040 40h56v144h-40a8 8 0 00-8 8v22.014q-1.679.658-3.341 1.39l-15.57-15.57a8 8 0 00-11.315 0l-33.941 33.941a8 8 0 000 11.315l15.57 15.57q-.731 1.661-1.39 3.341H272a8 8 0 00-8 8v48a8 8 0 008 8h22.014q.658 1.679 1.39 3.341l-15.57 15.57a8 8 0 000 11.315L313.607 480zm280 0h-18.745l15.4-15.4q1.661.731 3.341 1.39zm65.284-159.84a8 8 0 009.362-1.433l13.922-13.927 22.632 22.632-13.923 13.922a8 8 0 00-1.433 9.362A71.672 71.672 0 01444.7 362.4a8 8 0 007.633 5.6H472v32h-19.668a8 8 0 00-7.633 5.6 71.672 71.672 0 01-4.859 11.68 8 8 0 001.433 9.362l13.927 13.926-22.632 22.632-13.922-13.923a8 8 0 00-9.362-1.433A71.672 71.672 0 01397.6 452.7a8 8 0 00-5.6 7.633V480h-32v-19.668a8 8 0 00-5.6-7.633 71.672 71.672 0 01-11.68-4.859 8 8 0 00-9.362 1.433L319.432 463.2 296.8 440.568l13.923-13.922a8 8 0 001.433-9.362A71.672 71.672 0 01307.3 405.6a8 8 0 00-7.633-5.6H280v-32h19.668a8 8 0 007.633-5.6 71.672 71.672 0 014.859-11.68 8 8 0 00-1.433-9.362L296.8 327.432l22.632-22.632 13.922 13.923a8 8 0 009.362 1.433A71.672 71.672 0 01354.4 315.3a8 8 0 005.6-7.633V288h32v19.668a8 8 0 005.6 7.633 71.672 71.672 0 0111.684 4.859z"/><path d="M152 168a8 8 0 008 8h192a8 8 0 000-16H160a8 8 0 00-8 8zM80 224h160a8 8 0 000-16H80a8 8 0 000 16zM288 256h-80a8 8 0 000 16h80a8 8 0 000-16zM248 304h-16a8 8 0 000 16h16a8 8 0 000-16zM80 320h120a8 8 0 000-16H80a8 8 0 000 16zM80 176h48a8 8 0 000-16H80a8 8 0 000 16zM352 208h-80a8 8 0 000 16h80a8 8 0 000-16zM80 272h96a8 8 0 000-16H80a8 8 0 000 16zM224 400h-32a8 8 0 000 16h32a8 8 0 000-16zM160 400H80a8 8 0 000 16h80a8 8 0 000-16zM80 368h48a8 8 0 000-16H80a8 8 0 000 16zM80 128h96a8 8 0 000-16H80a8 8 0 000 16zM224 352h-64a8 8 0 000 16h64a8 8 0 000-16zM344 384a32 32 0 1032-32 32.036 32.036 0 00-32 32zm48 0a16 16 0 11-16-16 16.019 16.019 0 0116 16z"/></svg></svg>